<?xml version="1.0" standalone="no"?>
<!DOCTYPE svg PUBLIC "-//W3C//DTD SVG 20010904//EN"
 "http://www.w3.org/TR/2001/REC-SVG-20010904/DTD/svg10.dtd">
<svg version="1.0" xmlns="http://www.w3.org/2000/svg"
 width="160.000000pt" height="139.000000pt" viewBox="0 0 160.000000 139.000000"
 preserveAspectRatio="xMidYMid meet">

<g transform="translate(0.000000,139.000000) scale(0.100000,-0.100000)"
fill="#000000" stroke="none">
<path d="M704 1322 c-6 -4 -15 -23 -19 -42 -11 -54 -21 -66 -69 -84 -45 -17
-45 -17 -83 8 -21 14 -42 26 -48 26 -12 0 -175 -161 -175 -173 0 -4 12 -26 26
-48 25 -40 25 -41 8 -85 -19 -49 -31 -59 -87 -69 -20 -4 -37 -11 -37 -16 -1
-12 -1 -226 0 -238 0 -5 17 -12 37 -16 56 -10 68 -20 87 -69 17 -44 17 -45 -8
-85 -14 -22 -26 -44 -26 -49 0 -11 164 -172 175 -172 6 0 27 12 48 26 38 25
38 25 83 8 48 -18 58 -30 69 -84 9 -44 19 -50 77 -50 81 0 78 -6 78 155 0 157
1 155 -63 155 -80 0 -191 84 -233 174 -33 72 -33 180 0 252 42 90 153 174 233
174 64 0 63 -2 63 155 0 121 -2 144 -16 149 -22 8 -107 7 -120 -2z m91 -147
l0 -108 -50 -12 c-98 -22 -186 -91 -233 -180 -24 -45 -27 -61 -27 -155 0 -91
3 -111 24 -150 50 -97 152 -174 246 -187 l45 -6 0 -107 0 -108 -30 -4 c-40 -6
-46 0 -56 50 -9 42 -12 44 -75 71 l-66 28 -42 -25 -43 -25 -65 66 -66 65 25
44 24 43 -26 65 c-26 64 -27 65 -74 74 l-47 8 3 97 3 96 44 11 c43 10 46 13
71 75 l26 64 -24 43 -25 44 66 65 65 66 43 -25 42 -25 66 28 c64 27 66 29 74
73 9 45 19 53 62 51 19 -2 20 -9 20 -110z"/>
<path d="M1074 1210 c-12 -4 -24 -15 -27 -24 -5 -12 -20 -16 -55 -16 -71 0
-82 -16 -82 -119 l0 -82 -59 7 c-83 9 -151 -15 -212 -76 -48 -48 -79 -119 -79
-180 0 -15 7 -50 16 -79 34 -115 156 -192 280 -176 l54 6 0 -84 c0 -101 11
-117 84 -117 31 0 48 -5 52 -14 3 -8 19 -20 35 -26 63 -27 109 49 62 103 -21
23 -54 22 -87 -4 -18 -14 -37 -19 -63 -17 l-38 3 -3 87 -3 86 51 51 51 51 89
0 90 0 0 -41 c0 -26 -7 -50 -20 -66 -39 -50 -14 -103 48 -103 59 0 83 83 32
110 -16 8 -20 21 -20 59 0 70 -17 81 -118 81 -74 0 -82 2 -82 19 0 47 8 51
101 51 53 0 89 -4 89 -10 0 -39 84 -65 130 -40 53 28 40 128 -20 148 -39 14
-95 -6 -105 -37 -6 -19 -14 -21 -95 -21 -82 0 -88 1 -94 23 -12 46 -10 47 77
47 100 0 117 12 117 80 0 33 6 48 25 66 30 27 32 53 7 84 -22 27 -65 29 -92 5
-25 -23 -25 -55 0 -88 13 -16 20 -40 20 -66 l0 -41 -90 0 -89 0 -51 51 -51 51
3 86 3 87 38 3 c26 2 45 -3 63 -17 33 -26 66 -27 89 -1 24 27 22 70 -5 92 -24
20 -34 21 -66 8z m44 -58 c2 -14 -2 -22 -12 -22 -19 0 -29 17 -22 36 8 22 30
12 34 -14z m158 -161 c-9 -14 -33 -14 -41 -1 -4 6 -1 18 6 26 11 13 14 13 27
0 8 -8 11 -19 8 -25z m-383 -67 c77 -26 147 -123 147 -204 0 -109 -111 -220
-220 -220 -54 0 -119 31 -158 75 -84 95 -81 206 8 295 67 68 135 84 223 54z
m482 -204 c0 -33 -2 -35 -35 -35 -29 0 -36 4 -38 23 -6 40 5 54 40 50 30 -3
33 -6 33 -38z m-97 -277 c5 -17 -26 -29 -40 -15 -6 6 -7 15 -3 22 9 14 37 9
43 -7z m-161 -149 c8 -21 -13 -42 -28 -27 -13 13 -5 43 11 43 6 0 13 -7 17
-16z"/>
</g>
</svg>
